<svg id="Group_12" data-name="Group 12" xmlns="http://www.w3.org/2000/svg" width="255.974" height="192.633" viewBox="0 0 255.974 192.633">
  <circle id="Ellipse_5" data-name="Ellipse 5" cx="16.101" cy="16.101" r="16.101" transform="translate(95.04 30.299)" fill="#ff6884"/>
  <g id="Group_10" data-name="Group 10" transform="translate(0 0)">
    <path id="Path_33" data-name="Path 33" d="M0,333.36a.415.415,0,0,0,.416.416H255.558a.416.416,0,0,0,0-.833H.416A.415.415,0,0,0,0,333.36Z" transform="translate(0 -216.464)" fill="#3f3d56"/>
    <g id="Group_9" data-name="Group 9" transform="translate(101.976)">
      <path id="Path_34" data-name="Path 34" d="M466.985,66l1.339,17.125,19.4-8.1L476.78,57.606Z" transform="translate(-405.586 -37.453)" fill="#a0616a"/>
      <circle id="Ellipse_6" data-name="Ellipse 6" cx="14.462" cy="14.462" r="14.462" transform="translate(46.355 4.843)" fill="#a0616a"/>
      <path id="Path_35" data-name="Path 35" d="M360.678,439.306l2.449,21.966L345.985,458.9l5.6-20.291Z" transform="translate(-326.918 -285.16)" fill="#a0616a"/>
      <path id="Path_36" data-name="Path 36" d="M551.678,448.306l2.449,21.966L536.985,467.9l5.6-20.291Z" transform="translate(-451.097 -291.011)" fill="#a0616a"/>
      <path id="Path_37" data-name="Path 37" d="M385.947,260.106c-.234,0-18.943.939-31.3,1.561a10.4,10.4,0,0,0-9.85,11.2l4.419,56.86,12.595.35.307-45.83,24.882,1.4-1.05-25.539Z" transform="translate(-326.123 -169.108)" fill="#2f2e41"/>
      <path id="Path_38" data-name="Path 38" d="M473.526,252.6s3.149,24.14.7,26.589-79.241-1.924-79.241-1.924,16.846-24.327,19.881-25.021,51.314-3.142,51.314-3.142Z" transform="translate(-358.775 -161.956)" fill="#2f2e41"/>
      <path id="uuid-395a52e4-5c72-4314-a9bf-6720c6920e4c" d="M330.712,150.849c-2.924-4.09-3.185-8.914-.581-10.775s7.083-.053,10.008,4.039a12.583,12.583,0,0,1,2.292,5.483L354.6,167.082l-6.927,4.8L335.16,154.793a12.584,12.584,0,0,1-4.448-3.944Z" transform="translate(-315.444 -90.593)" fill="#a0616a"/>
      <path id="uuid-2bcb0f29-4cb0-4836-b3e1-c42200070018" d="M444.89,291.287c-4.46,2.322-9.273,1.9-10.75-.935s.94-7.021,5.4-9.343a12.583,12.583,0,0,1,5.75-1.5l19.02-9.6,3.777,7.531-18.671,10A12.584,12.584,0,0,1,444.89,291.287Z" transform="translate(-383.95 -175.481)" fill="#a0616a"/>
      <path id="Path_39" data-name="Path 39" d="M464.985,98.953l17.842-7.347,33.586,51.778s-23.44,5.248-31.486,6.3-17.143-3.149-17.143-3.149l-2.8-47.579Z" transform="translate(-404.286 -59.558)" fill="#e6e6e6"/>
      <path id="Path_40" data-name="Path 40" d="M514.957,100.087,508.485,79.9l8.4,6.37s23.79,15.743,23.79,22.39,7.347,26.938,7.347,26.938,8.222,6.822,5.423,13.119,3.673,5.423,4.373,9.971-9.971,10.67-9.971,10.67-2.624-25.714-11.02-25.714S514.957,100.087,514.957,100.087Z" transform="translate(-432.567 -51.945)" fill="#3f3d56"/>
      <path id="Path_41" data-name="Path 41" d="M451.593,111.13l-8.776,3.49s1.4,24.489,2.8,26.589,6.3,13.294,6.3,13.294v3.649s-9.8,3-9.446,4.748,23.09,6.647,23.09,6.647S461.01,155.553,458.211,151s-6.618-39.874-6.618-39.874Z" transform="translate(-389.64 -72.251)" fill="#3f3d56"/>
      <path id="Path_42" data-name="Path 42" d="M493.027,97.052s19.592-1.05,23.79,9.446,7.7,44.781,7.7,44.781L481.831,174.5l-7.347-11.326,28.688-22.39L493.027,97.052Z" transform="translate(-410.462 -63.079)" fill="#3f3d56"/>
      <path id="Path_43" data-name="Path 43" d="M389.42,121.012s-10.146-1.4-11.895,10.5-.638,13.469-.638,13.469l-2.861,6.822-9.446-10.5-9.1,5.947s16.443,26.589,23.09,25.889S395.018,153.2,395.018,153.2Z" transform="translate(-333.094 -78.643)" fill="#3f3d56"/>
      <path id="Path_44" data-name="Path 44" d="M557.119,260.986l-5.191,73.455-13.469-.525s-2.974-69.445-2.974-70.495,1.4-7,10.146-7.347S557.119,260.986,557.119,260.986Z" transform="translate(-450.121 -166.477)" fill="#2f2e41"/>
      <path id="Path_45" data-name="Path 45" d="M525.85,481.912s7-2.1,8.047-.7,7,2.1,7,2.1l1.749,17.143s-4.9,3.5-5.6,4.2-19.242,1.4-19.592-2.8,4.9-9.446,4.9-9.446l3.5-10.5Z" transform="translate(-438.388 -312.548)" fill="#2f2e41"/>
      <path id="Path_46" data-name="Path 46" d="M327.519,465.555s2.1-1.749,2.8,3.149,3.149,12.944-.35,13.994-38.483,1.4-38.483-1.749V477.8l3.149-2.449,6.3-1s12.243-11.241,13.643-11.241,5.947,4.548,5.947,4.548Z" transform="translate(-291.485 -301.089)" fill="#2f2e41"/>
      <path id="Path_47" data-name="Path 47" d="M450.072,27.15s-7-8.4-9.8-7.7-1.05,1.749-1.05,1.749l-7-7.7s-5.6-2.1-10.845,4.548c0,0-3.149-5.6,0-8.746s4.2-2.8,4.9-4.548,5.6-3.149,5.6-3.149S431.6-.906,433.138.352s5.385,1.259,5.385,1.259.022-1.4,1.587,0a3.329,3.329,0,0,0,3.314.7s0,2.421,1.224,2.435,3.324-1.735,3.673-.336,2.8,2.1,3.149,6.3S450.072,27.15,450.072,27.15Z" transform="translate(-375.029 0)" fill="#2f2e41"/>
    </g>
  </g>
  <g id="Group_11" data-name="Group 11" transform="translate(23.933 10.358)">
    <rect id="Rectangle_6" data-name="Rectangle 6" width="69.231" height="12.269" rx="6.134" transform="translate(12.707 27.151)" fill="#3f3d56"/>
    <rect id="Rectangle_7" data-name="Rectangle 7" width="55.94" height="61.344" transform="translate(19.937 0.35)" fill="#fff"/>
    <path id="Path_48" data-name="Path 48" d="M181.036,91.649H124.4V29.606h56.639Zm-55.94-.7h55.24V30.306H125.1Z" transform="translate(-104.81 -29.606)" fill="#3f3d56"/>
    <rect id="Rectangle_8" data-name="Rectangle 8" width="79.455" height="16.358" rx="8.179" transform="translate(8.179 36.061)" fill="#3f3d56"/>
    <ellipse id="Ellipse_7" data-name="Ellipse 7" cx="1.461" cy="4.893" rx="1.461" ry="4.893" transform="translate(90.847 39.858)" fill="#3f3d56"/>
    <ellipse id="Ellipse_8" data-name="Ellipse 8" cx="1.753" cy="4.747" rx="1.753" ry="4.747" transform="translate(0 39.566)" fill="#3f3d56"/>
    <rect id="Rectangle_9" data-name="Rectangle 9" width="10.078" height="1.022" transform="translate(2.191 43.656)" fill="#3f3d56"/>
    <rect id="Rectangle_10" data-name="Rectangle 10" width="8.179" height="1.461" transform="translate(83.252 44.094)" fill="#3f3d56"/>
    <path id="Path_49" data-name="Path 49" d="M173.809,225.207H113.321a8.683,8.683,0,0,1-8.673-8.673V173.208a8.683,8.683,0,0,1,8.673-8.673h60.487a8.682,8.682,0,0,1,8.672,8.673v43.326A8.682,8.682,0,0,1,173.809,225.207Z" transform="translate(-91.971 -117.331)" fill="#3f3d56"/>
    <circle id="Ellipse_9" data-name="Ellipse 9" cx="1.899" cy="1.899" r="1.899" transform="translate(17.381 78.125)" fill="#6c63ff"/>
    <circle id="Ellipse_10" data-name="Ellipse 10" cx="1.899" cy="1.899" r="1.899" transform="translate(20.01 84.259)" fill="#6c63ff"/>
    <circle id="Ellipse_11" data-name="Ellipse 11" cx="1.899" cy="1.899" r="1.899" transform="translate(21.908 89.809)" fill="#6c63ff"/>
    <circle id="Ellipse_12" data-name="Ellipse 12" cx="1.899" cy="1.899" r="1.899" transform="translate(25.268 95.505)" fill="#6c63ff"/>
    <circle id="Ellipse_13" data-name="Ellipse 13" cx="1.899" cy="1.899" r="1.899" transform="translate(30.818 95.505)" fill="#6c63ff"/>
    <circle id="Ellipse_14" data-name="Ellipse 14" cx="1.899" cy="1.899" r="1.899" transform="translate(36.368 95.505)" fill="#6c63ff"/>
    <circle id="Ellipse_15" data-name="Ellipse 15" cx="1.899" cy="1.899" r="1.899" transform="translate(41.918 95.505)" fill="#6c63ff"/>
    <circle id="Ellipse_16" data-name="Ellipse 16" cx="1.899" cy="1.899" r="1.899" transform="translate(47.468 95.505)" fill="#6c63ff"/>
    <circle id="Ellipse_17" data-name="Ellipse 17" cx="1.899" cy="1.899" r="1.899" transform="translate(53.018 95.505)" fill="#6c63ff"/>
    <circle id="Ellipse_18" data-name="Ellipse 18" cx="1.899" cy="1.899" r="1.899" transform="translate(58.569 95.505)" fill="#6c63ff"/>
    <circle id="Ellipse_19" data-name="Ellipse 19" cx="1.899" cy="1.899" r="1.899" transform="translate(64.119 95.505)" fill="#6c63ff"/>
    <circle id="Ellipse_20" data-name="Ellipse 20" cx="1.899" cy="1.899" r="1.899" transform="translate(69.669 95.505)" fill="#6c63ff"/>
    <circle id="Ellipse_21" data-name="Ellipse 21" cx="1.899" cy="1.899" r="1.899" transform="translate(75.219 95.505)" fill="#6c63ff"/>
    <circle id="Ellipse_22" data-name="Ellipse 22" cx="1.899" cy="1.899" r="1.899" transform="translate(27.561 89.809)" fill="#6c63ff"/>
    <circle id="Ellipse_23" data-name="Ellipse 23" cx="1.899" cy="1.899" r="1.899" transform="translate(33.213 89.809)" fill="#6c63ff"/>
    <circle id="Ellipse_24" data-name="Ellipse 24" cx="1.899" cy="1.899" r="1.899" transform="translate(38.866 89.809)" fill="#6c63ff"/>
    <circle id="Ellipse_25" data-name="Ellipse 25" cx="1.899" cy="1.899" r="1.899" transform="translate(44.518 89.809)" fill="#6c63ff"/>
    <circle id="Ellipse_26" data-name="Ellipse 26" cx="1.899" cy="1.899" r="1.899" transform="translate(50.17 89.809)" fill="#6c63ff"/>
    <circle id="Ellipse_27" data-name="Ellipse 27" cx="1.899" cy="1.899" r="1.899" transform="translate(55.823 89.809)" fill="#6c63ff"/>
    <circle id="Ellipse_28" data-name="Ellipse 28" cx="1.899" cy="1.899" r="1.899" transform="translate(61.475 89.809)" fill="#6c63ff"/>
    <circle id="Ellipse_29" data-name="Ellipse 29" cx="1.899" cy="1.899" r="1.899" transform="translate(67.127 89.809)" fill="#6c63ff"/>
    <circle id="Ellipse_30" data-name="Ellipse 30" cx="1.899" cy="1.899" r="1.899" transform="translate(72.78 89.809)" fill="#6c63ff"/>
    <circle id="Ellipse_31" data-name="Ellipse 31" cx="1.899" cy="1.899" r="1.899" transform="translate(78.432 89.809)" fill="#6c63ff"/>
    <circle id="Ellipse_32" data-name="Ellipse 32" cx="1.899" cy="1.899" r="1.899" transform="translate(25.706 84.259)" fill="#6c63ff"/>
    <circle id="Ellipse_33" data-name="Ellipse 33" cx="1.899" cy="1.899" r="1.899" transform="translate(31.402 84.259)" fill="#6c63ff"/>
    <circle id="Ellipse_34" data-name="Ellipse 34" cx="1.899" cy="1.899" r="1.899" transform="translate(37.098 84.259)" fill="#6c63ff"/>
    <circle id="Ellipse_35" data-name="Ellipse 35" cx="1.899" cy="1.899" r="1.899" transform="translate(42.794 84.259)" fill="#6c63ff"/>
    <circle id="Ellipse_36" data-name="Ellipse 36" cx="1.899" cy="1.899" r="1.899" transform="translate(48.491 84.259)" fill="#6c63ff"/>
    <circle id="Ellipse_37" data-name="Ellipse 37" cx="1.899" cy="1.899" r="1.899" transform="translate(54.187 84.259)" fill="#6c63ff"/>
    <circle id="Ellipse_38" data-name="Ellipse 38" cx="1.899" cy="1.899" r="1.899" transform="translate(59.883 84.259)" fill="#6c63ff"/>
    <circle id="Ellipse_39" data-name="Ellipse 39" cx="1.899" cy="1.899" r="1.899" transform="translate(65.579 84.259)" fill="#6c63ff"/>
    <circle id="Ellipse_40" data-name="Ellipse 40" cx="1.899" cy="1.899" r="1.899" transform="translate(71.275 84.259)" fill="#6c63ff"/>
    <circle id="Ellipse_41" data-name="Ellipse 41" cx="1.899" cy="1.899" r="1.899" transform="translate(76.972 84.259)" fill="#6c63ff"/>
    <circle id="Ellipse_42" data-name="Ellipse 42" cx="1.899" cy="1.899" r="1.899" transform="translate(82.668 84.259)" fill="#6c63ff"/>
    <circle id="Ellipse_43" data-name="Ellipse 43" cx="1.899" cy="1.899" r="1.899" transform="translate(23.077 78.125)" fill="#6c63ff"/>
    <circle id="Ellipse_44" data-name="Ellipse 44" cx="1.899" cy="1.899" r="1.899" transform="translate(28.773 78.125)" fill="#6c63ff"/>
    <circle id="Ellipse_45" data-name="Ellipse 45" cx="1.899" cy="1.899" r="1.899" transform="translate(34.469 78.125)" fill="#6c63ff"/>
    <circle id="Ellipse_46" data-name="Ellipse 46" cx="1.899" cy="1.899" r="1.899" transform="translate(40.165 78.125)" fill="#6c63ff"/>
    <circle id="Ellipse_47" data-name="Ellipse 47" cx="1.899" cy="1.899" r="1.899" transform="translate(45.862 78.125)" fill="#6c63ff"/>
    <circle id="Ellipse_48" data-name="Ellipse 48" cx="1.899" cy="1.899" r="1.899" transform="translate(51.558 78.125)" fill="#6c63ff"/>
    <circle id="Ellipse_49" data-name="Ellipse 49" cx="1.899" cy="1.899" r="1.899" transform="translate(57.254 78.125)" fill="#6c63ff"/>
    <circle id="Ellipse_50" data-name="Ellipse 50" cx="1.899" cy="1.899" r="1.899" transform="translate(62.95 78.125)" fill="#6c63ff"/>
    <circle id="Ellipse_51" data-name="Ellipse 51" cx="1.899" cy="1.899" r="1.899" transform="translate(68.646 78.125)" fill="#6c63ff"/>
    <circle id="Ellipse_52" data-name="Ellipse 52" cx="1.899" cy="1.899" r="1.899" transform="translate(74.343 78.125)" fill="#6c63ff"/>
    <circle id="Ellipse_53" data-name="Ellipse 53" cx="1.899" cy="1.899" r="1.899" transform="translate(80.039 78.125)" fill="#6c63ff"/>
    <circle id="Ellipse_54" data-name="Ellipse 54" cx="7.449" cy="7.449" r="7.449" transform="translate(13.437 47.891)" fill="#6c63ff"/>
    <circle id="Ellipse_55" data-name="Ellipse 55" cx="7.449" cy="7.449" r="7.449" transform="translate(73.904 47.891)" fill="#6c63ff"/>
    <path id="Path_50" data-name="Path 50" d="M167.285,179.439H190.27a2.676,2.676,0,0,1,2.414,1.521l6.2,12.965a2.676,2.676,0,0,1-2.414,3.83H162.839a2.676,2.676,0,0,1-2.531-3.543l4.446-12.965A2.676,2.676,0,0,1,167.285,179.439Z" transform="translate(-128.062 -127.02)" fill="#6c63ff"/>
  </g>
  <rect id="Rectangle_11" data-name="Rectangle 11" width="33.731" height="0.7" transform="translate(54.425 19.804)" fill="#3f3d56"/>
  <rect id="Rectangle_12" data-name="Rectangle 12" width="33.731" height="0.7" transform="translate(54.425 26.101)" fill="#3f3d56"/>
  <rect id="Rectangle_13" data-name="Rectangle 13" width="33.731" height="0.7" transform="translate(54.425 32.398)" fill="#3f3d56"/>
</svg>
