<svg id="Group_23" data-name="Group 23" xmlns="http://www.w3.org/2000/svg" width="232.4" height="186.066" viewBox="0 0 232.4 186.066">
  <g id="Group_20" data-name="Group 20" transform="translate(85.188 0)">
    <path id="Path_80" data-name="Path 80" d="M182.994,160.968c-2.356,2.22-5.412,2.8-6.824,1.3s-.648-4.515,1.709-6.735a8.1,8.1,0,0,1,3.3-1.937l10.1-9.281,4.255,4.834-10.41,8.637A8.1,8.1,0,0,1,182.994,160.968Z" transform="translate(-175.461 -74.251)" fill="#ffb6b6"/>
    <g id="Group_17" data-name="Group 17" transform="translate(43.764 163.446)">
      <path id="Path_81" data-name="Path 81" d="M292.828,355.431h-4.87l-2.317-18.784h7.188Z" transform="translate(-275.911 -336.646)" fill="#ffb6b6"/>
      <path id="Path_82" data-name="Path 82" d="M265.832,369.287h0a4.182,4.182,0,0,0-.232,1.377h0a1.653,1.653,0,0,0,1.653,1.653h15.082a1.128,1.128,0,0,0,1.128-1.128v-.628a4.821,4.821,0,0,0-.79-4.213s-1.909,1.821-4.762-1.031l-.841-1.524-6.089,4.453-3.375.415C266.867,368.752,266.212,368.647,265.832,369.287Z" transform="translate(-265.601 -350.613)" fill="#2f2e41"/>
    </g>
    <g id="Group_18" data-name="Group 18" transform="translate(78.37 160.996)">
      <path id="Path_83" data-name="Path 83" d="M359.691,350.068l-4.788.889L349.2,332.912l7.067-1.312Z" transform="translate(-343.215 -331.6)" fill="#ffb6b6"/>
      <path id="Path_84" data-name="Path 84" d="M336.929,367.792h0a4.18,4.18,0,0,0,.024,1.4h0a1.653,1.653,0,0,0,1.927,1.323l14.828-2.754a1.128,1.128,0,0,0,.9-1.315l-.115-.617a4.821,4.821,0,0,0-1.546-4s-1.544,2.139-4.87-.144l-1.105-1.345-5.174,5.49-3.243,1.025C337.848,367.077,337.185,367.094,336.929,367.792Z" transform="translate(-336.877 -346.385)" fill="#2f2e41"/>
    </g>
    <path id="Path_85" data-name="Path 85" d="M305.7,181.932l12,80.315L306.531,263.7,287.11,200.1l-2.428,65.544H274.275s-8.99-72.341-6.331-81.081S305.7,181.932,305.7,181.932Z" transform="translate(-222.789 -92.534)" fill="#2f2e41"/>
    <path id="Path_86" data-name="Path 86" d="M280.594,51.554h11.652l1.7,4.127s6.8,3.884,6.8,5.341,4.127,38.113,4.127,38.113l2.185,20.149s-25.489,12.866-38.113-.243l2.428-22.334s-1.942-34.957-.971-36.413,8.254-4.855,8.254-4.855Z" transform="translate(-223.555 -26.524)" fill="#6c63ff"/>
    <path id="Path_87" data-name="Path 87" d="M239.383,64.2h0s3.551,5.366,2.431,7.574-18.607,23.394-18.607,23.394l-21.1,17.375-6.184-5.488L215.8,88.095l12.84-18.937a9.708,9.708,0,0,1,10.745-4.96Z" transform="translate(-185.989 -32.905)" fill="#6c63ff"/>
    <g id="Group_19" data-name="Group 19" transform="translate(68.608 31.375)">
      <path id="Path_88" data-name="Path 88" d="M358.328,190.087c.507,3.2-.731,6.051-2.766,6.374s-4.1-2.008-4.6-5.2a8.1,8.1,0,0,1,.258-3.818l-1.979-13.575,6.39-.793,1.273,13.467A8.1,8.1,0,0,1,358.328,190.087Z" transform="translate(-333.474 -120.417)" fill="#ffb6b6"/>
      <path id="Path_89" data-name="Path 89" d="M316.77,65.072s10.048-2.249,11.873,3.323,12.794,58.425,12.794,58.425l-8.356.925-6.275-36.21Z" transform="translate(-316.77 -64.623)" fill="#6c63ff"/>
    </g>
    <circle id="Ellipse_57" data-name="Ellipse 57" cx="10.018" cy="10.018" r="10.018" transform="translate(53.246 2.291)" fill="#ffb6b6"/>
    <path id="Path_90" data-name="Path 90" d="M298.509,20.815c-.642.031-1.49-.091-1.6-.725-.076-.447.3-.833.656-1.115a11.78,11.78,0,0,0,1.442-1.229,2.647,2.647,0,0,0,.761-1.693,1.516,1.516,0,0,0-.974-1.476,1.074,1.074,0,0,0-1.369.9,5.8,5.8,0,0,1-.691-3.063q-.027-.931-.024-1.862c0-.848.024-1.7.046-2.544-.417-.022-3.782,1.244-4.268,1.244-.418,0-3.772-.666-3.549-1.622-.066.611-3.266,1.711-3.331,1.391s-.3-.657-.63-.638c-.343.02-.53.4-.646.725-.258.723-.884,1.974-1.555,1.6C277.7,7.879,281.8,7,282.4,5.848a9.871,9.871,0,0,1,2.844-3.787c1.316-.9,2.355-1.979,3.392-.766,2.6-1.9,5.181-1.438,8.212-.357a10.106,10.106,0,0,1,6.27,6.84c.373,1.427,1.373,2.053.628,3.327.821,1.1.376.478.538,1.842a5.177,5.177,0,0,1-.513,3.155,5.123,5.123,0,0,1-2.658,2.129c-1.079.42-1.265,2.53-2.411,2.7" transform="translate(-229.383 0)" fill="#2f2e41"/>
  </g>
  <path id="Path_91" data-name="Path 91" d="M419.541,322.681a1.1,1.1,0,0,0,.8-1.91l-.076-.3.03-.072a2.959,2.959,0,0,1,5.458.02c.893,2.15,2.029,4.3,2.309,6.577a8.754,8.754,0,0,1-.154,3.01,35.094,35.094,0,0,0,3.192-14.576,33.876,33.876,0,0,0-.21-3.779q-.174-1.543-.483-3.064a35.5,35.5,0,0,0-7.04-15.046,9.448,9.448,0,0,1-3.929-4.077,7.207,7.207,0,0,1-.655-1.969,8.893,8.893,0,0,0,.577-3.067c.267-.4.744-.606,1.035-1,1.448-1.963,3.443-1.62,4.484,1.047,2.225,1.123,2.246,2.985.881,4.776-.868,1.139-.988,2.681-1.75,3.9.078.1.16.2.238.3a35.728,35.728,0,0,1,3.729,5.908,14.853,14.853,0,0,1,.887-6.9,24.878,24.878,0,0,1,3.841-5.542,3.049,3.049,0,0,1,5.43,1.5l.008.078q-.312.176-.611.374a1.5,1.5,0,0,0,.6,2.72l.03,0a14.864,14.864,0,0,1-.392,2.223c1.8,6.951-2.083,9.482-7.623,9.6-.122.063-.241.125-.364.185a36.471,36.471,0,0,1,1.963,9.238,34.591,34.591,0,0,1-.025,5.585l.009-.066a9.14,9.14,0,0,1,3.12-5.278c2.4-1.972,5.794-2.7,8.384-4.284a1.715,1.715,0,0,1,2.627,1.669l-.011.069a10.03,10.03,0,0,0-1.126.542q-.312.176-.611.374a1.5,1.5,0,0,0,.6,2.72l.03,0,.063.009a14.884,14.884,0,0,1-2.738,4.287c-1.124,6.068-5.95,6.643-11.113,4.876h0a36.461,36.461,0,0,1-2.449,7.15h-8.749c-.031-.1-.06-.2-.088-.295a9.94,9.94,0,0,0,2.421-.144c-.649-.8-1.3-1.6-1.947-2.4a.534.534,0,0,1-.041-.047c-.329-.408-.662-.812-.991-1.22h0a14.559,14.559,0,0,1,.427-3.709h0Z" transform="translate(-215.458 -145.177)" fill="#f2f2f2"/>
  <path id="Path_92" data-name="Path 92" d="M0,381.435a.576.576,0,0,0,.578.578H231.823a.578.578,0,0,0,0-1.156H.578A.576.576,0,0,0,0,381.435Z" transform="translate(0 -195.946)" fill="#ccc"/>
  <path id="Path_93" data-name="Path 93" d="M59.339,183.4l-.066-.969a41.889,41.889,0,0,0,5.645-.771l.2.951A42.981,42.981,0,0,1,59.339,183.4Zm-5.836-.086a53.057,53.057,0,0,1-5.756-.834l.193-.952a51.946,51.946,0,0,0,5.651.819l-.087.967Zm17.226-2.275-.326-.915a41.656,41.656,0,0,0,5.224-2.274l.448.862A42.679,42.679,0,0,1,70.729,181.041Zm-28.607-.061a43.515,43.515,0,0,1-5.389-2.215l.429-.87a42.6,42.6,0,0,0,5.269,2.165ZM31.7,175.823a39.865,39.865,0,0,1-4.556-3.642l.66-.712a38.862,38.862,0,0,0,4.445,3.553l-.549.8Zm49.352-.142-.561-.793a42.127,42.127,0,0,0,4.417-3.6l.663.709A43.115,43.115,0,0,1,81.05,175.681ZM23.166,167.9a40.651,40.651,0,0,1-3.31-4.806l.837-.492a39.672,39.672,0,0,0,3.23,4.692Zm66.382-.165-.753-.614a42.04,42.04,0,0,0,3.29-4.654l.829.505A43.063,43.063,0,0,1,89.549,167.739Zm-72.289-9.862a43.739,43.739,0,0,1-1.862-5.525l.939-.248a42.735,42.735,0,0,0,1.82,5.4l-.9.372ZM95.6,157.8l-.89-.388a41.5,41.5,0,0,0,1.909-5.372l.935.262A42.51,42.51,0,0,1,95.6,157.8ZM14.277,146.631a45.8,45.8,0,0,1-.377-5.815h.971a44.826,44.826,0,0,0,.369,5.692Zm84.458-.038-.962-.131a42.317,42.317,0,0,0,.384-5.685v-.088h.971v.084A43.3,43.3,0,0,1,98.735,146.593Zm-83.5-11.47L14.267,135a45.1,45.1,0,0,1,1.11-5.722l.939.247a44.1,44.1,0,0,0-1.086,5.6Zm82.531-.116A41.715,41.715,0,0,0,96.6,129.43l.935-.263a42.678,42.678,0,0,1,1.192,5.707ZM18.126,124.121l-.9-.37a42.222,42.222,0,0,1,2.586-5.224l.838.49a41.156,41.156,0,0,0-2.526,5.1Zm76.552-.055a41.825,41.825,0,0,0-2.633-5.048l.828-.507a42.75,42.75,0,0,1,2.694,5.166Zm-5.929-9.693a42.153,42.153,0,0,0-3.9-4.157l.662-.711a43.17,43.17,0,0,1,3.987,4.253Zm-64.877-.051-.759-.605a39.835,39.835,0,0,1,3.962-4.281l.662.71A38.844,38.844,0,0,0,23.872,114.321Zm56.556-7.7a41.951,41.951,0,0,0-4.872-2.958L76,102.8a42.916,42.916,0,0,1,4.985,3.027Zm-48.254-.041-.551-.8a40.988,40.988,0,0,1,5.027-2.953l.431.87a39.949,39.949,0,0,0-4.908,2.883Zm10.172-5.06-.311-.92a47.441,47.441,0,0,1,5.623-1.512l.195.951A46.471,46.471,0,0,0,42.347,101.522Zm27.978-.122a41.591,41.591,0,0,0-5.493-1.526l.195-.951a42.56,42.56,0,0,1,5.622,1.562l-.324.916ZM53.5,99.213l-.089-.967c.972-.089,1.971-.154,2.97-.194.945-.011,1.924.031,2.865.093l-.064.969c-.92-.061-1.856-.091-2.783-.091C55.44,99.062,54.458,99.126,53.5,99.213Z" transform="translate(-7.152 -50.446)" fill="#3f3d56"/>
  <g id="Group_21" data-name="Group 21" transform="translate(3.823 103.839)">
    <circle id="Ellipse_58" data-name="Ellipse 58" cx="13.109" cy="13.109" r="13.109" fill="#6c63ff"/>
    <path id="Path_94" data-name="Path 94" d="M24.307,231.044a.744.744,0,0,1,.754-.735h8.754a.744.744,0,0,1,.754.735v8.791a.744.744,0,0,1-.754.735H25.061a.744.744,0,0,1-.754-.735v-8.791Zm3.17,7.855v-4.633h-1.54V238.9Zm-.77-5.266a.858.858,0,1,0-.01,0h.01Zm3.148,5.266v-2.588a1.046,1.046,0,0,1,.051-.376.842.842,0,0,1,.79-.563c.557,0,.78.425.78,1.048V238.9h1.54v-2.658c0-1.424-.759-2.086-1.773-2.086a1.53,1.53,0,0,0-1.388.765v.016h-.01l.01-.016v-.655H28.316c.019.435,0,4.633,0,4.633Z" transform="translate(-16.329 -222.33)" fill="#fff"/>
  </g>
  <circle id="Ellipse_59" data-name="Ellipse 59" cx="13.109" cy="13.109" r="13.109" transform="translate(42.534 35.207)" fill="#6c63ff"/>
  <path id="Path_95" data-name="Path 95" d="M108.222,92.787a3.4,3.4,0,0,1,2.524-1.733c1.914,0,3.491,2.437,3.491,5.338,0,1.77-.762,2.879-2.131,2.879-1.192,0-1.851-.669-3.032-2.646l-.515-.868-.091-.152q-.2-.341-.41-.678l-.91,1.607c-1.293,2.26-2.021,2.736-3.032,2.736-1.4,0-2.244-1.093-2.244-2.828,0-2.77,1.542-5.389,3.553-5.389a2.648,2.648,0,0,1,.714.094,2.708,2.708,0,0,1,.706.315A5.571,5.571,0,0,1,108.222,92.787Zm1.172,1.719q-.292-.475-.562-.876l0-.006c.653-1.008,1.192-1.51,1.833-1.51,1.332,0,2.4,1.961,2.4,4.369,0,.918-.3,1.451-.923,1.451-.6,0-.883-.394-2.017-2.218l-.724-1.209h0Zm-3.777-2.1c.56.077,1.07.49,1.808,1.546q-.639.978-1.264,1.965c-1.049,1.643-1.411,2.012-1.995,2.012-.6,0-.958-.527-.958-1.468,0-2.011,1-4.068,2.2-4.068a1.56,1.56,0,0,1,.209.014h0Z" transform="translate(-52.412 -46.846)" fill="#fff" fill-rule="evenodd"/>
  <g id="Group_22" data-name="Group 22" transform="translate(0.349 55.942)">
    <circle id="Ellipse_60" data-name="Ellipse 60" cx="13.109" cy="13.109" r="13.109" fill="#6c63ff"/>
    <path id="Path_96" data-name="Path 96" d="M19.573,141.947a6.6,6.6,0,0,0,6.645-6.64c0-.1,0-.2,0-.3A4.756,4.756,0,0,0,27.38,133.8a4.736,4.736,0,0,1-1.344.368,2.348,2.348,0,0,0,1.029-1.293,4.648,4.648,0,0,1-1.485.564,2.338,2.338,0,0,0-3.981,2.13,6.634,6.634,0,0,1-4.814-2.439,2.34,2.34,0,0,0,.724,3.117,2.364,2.364,0,0,1-1.057-.29v.032a2.339,2.339,0,0,0,1.872,2.289,2.362,2.362,0,0,1-1.052.041,2.335,2.335,0,0,0,2.182,1.62,4.687,4.687,0,0,1-2.9,1A4.5,4.5,0,0,1,16,140.9a6.647,6.647,0,0,0,3.575,1.042Z" transform="translate(-8.58 -124.214)" fill="#fff"/>
  </g>
  <circle id="Ellipse_61" data-name="Ellipse 61" cx="13.109" cy="13.109" r="13.109" transform="translate(47.544 118.24)" fill="#6c63ff"/>
  <path id="Path_97" data-name="Path 97" d="M119,259.02c-1.517,0-1.708.007-2.3.034a4.119,4.119,0,0,0-1.358.26,2.861,2.861,0,0,0-1.635,1.635,4.1,4.1,0,0,0-.26,1.356c-.027.6-.034.788-.034,2.307s.007,1.708.034,2.3a4.119,4.119,0,0,0,.26,1.357,2.862,2.862,0,0,0,1.635,1.635,4.106,4.106,0,0,0,1.357.26c.6.027.787.034,2.306.034s1.708-.007,2.3-.034a4.128,4.128,0,0,0,1.358-.26,2.862,2.862,0,0,0,1.635-1.635,4.137,4.137,0,0,0,.26-1.357c.027-.6.034-.786.034-2.3s-.007-1.709-.034-2.306a4.133,4.133,0,0,0-.26-1.357,2.861,2.861,0,0,0-1.635-1.635,4.112,4.112,0,0,0-1.358-.26c-.6-.027-.786-.034-2.306-.034h0Zm-.5,1.008h.5c1.493,0,1.67,0,2.259.032a3.1,3.1,0,0,1,1.039.192,1.852,1.852,0,0,1,1.061,1.062,3.071,3.071,0,0,1,.192,1.038c.027.589.033.766.033,2.258s-.006,1.67-.033,2.259a3.093,3.093,0,0,1-.192,1.038,1.853,1.853,0,0,1-1.062,1.06,3.075,3.075,0,0,1-1.038.193c-.589.027-.766.033-2.259.033s-1.67-.006-2.259-.033a3.088,3.088,0,0,1-1.038-.193,1.855,1.855,0,0,1-1.062-1.061,3.089,3.089,0,0,1-.192-1.038c-.027-.589-.032-.766-.032-2.259s.006-1.669.032-2.258a3.093,3.093,0,0,1,.193-1.039,1.852,1.852,0,0,1,1.062-1.061,3.089,3.089,0,0,1,1.038-.193c.516-.024.716-.031,1.758-.031h0Zm3.486.928a.671.671,0,0,0,0,1.342h0a.671.671,0,0,0,0-1.342ZM119,261.74a2.872,2.872,0,0,0-.09,5.743H119a2.872,2.872,0,0,0,0-5.743Zm0,1.007a1.864,1.864,0,1,1,0,3.728h0a1.864,1.864,0,1,1,0-3.728Z" transform="translate(-58.348 -133.263)" fill="#fff"/>
</svg>
