<svg id="Group_16" data-name="Group 16" xmlns="http://www.w3.org/2000/svg" width="276.53" height="175.006" viewBox="0 0 276.53 175.006">
  <path id="Path_51" data-name="Path 51" d="M231.95,13.7H.67A16.429,16.429,0,0,1,2.526,8.509,16.626,16.626,0,0,1,17.027,0H215.594a16.62,16.62,0,0,1,14.5,8.509A16.436,16.436,0,0,1,231.95,13.7Z" transform="translate(-0.413)" fill="#f2f2f2"/>
  <path id="Path_52" data-name="Path 52" d="M565.813,452.967a.456.456,0,0,1-.457.457H470.317a.456.456,0,0,1-.457-.457.445.445,0,0,1,.123-.311h34.481a16.013,16.013,0,0,0,2.16-.146h58.732A.456.456,0,0,1,565.813,452.967Z" transform="translate(-289.283 -278.601)" fill="#3f3d56"/>
  <path id="Path_53" data-name="Path 53" d="M266.1,203.752H157.985a2.37,2.37,0,0,1,0-4.612H266.1a2.37,2.37,0,0,1,0,4.612Z" transform="translate(-96.147 -122.606)" fill="#e6e6e6"/>
  <path id="Path_54" data-name="Path 54" d="M231.538,13.7a16.436,16.436,0,0,0-1.86-5.192A16.62,16.62,0,0,0,215.181,0H16.614a16.626,16.626,0,0,0-14.5,8.509A16.592,16.592,0,0,0,0,16.614v141.6a16.632,16.632,0,0,0,16.614,16.614H215.181A16.622,16.622,0,0,0,231.8,158.209V16.614A16.558,16.558,0,0,0,231.538,13.7Zm-.511,144.508a15.85,15.85,0,0,1-13.686,15.7,16.01,16.01,0,0,1-2.16.146H40.215A39.448,39.448,0,0,1,.769,134.6V16.614A15.826,15.826,0,0,1,1.038,13.7,15.668,15.668,0,0,1,3,8.509,15.835,15.835,0,0,1,16.614.769H215.181A15.835,15.835,0,0,1,228.8,8.509a15.667,15.667,0,0,1,1.96,5.192,15.825,15.825,0,0,1,.269,2.913Z" fill="#3f3d56"/>
  <g id="Group_15" data-name="Group 15" transform="translate(188.862 64.235)">
    <path id="Path_55" data-name="Path 55" d="M573.843,204.968l-1.3-4.769,5.852-2.168.65,4.335Z" transform="translate(-541.364 -186.16)" fill="#ffb6b6"/>
    <path id="Path_56" data-name="Path 56" d="M573.843,206.112l-1.3-4.769,3.446-1.454-1.071,5.622Z" transform="translate(-541.364 -187.303)" opacity="0.1" style="isolation: isolate"/>
    <g id="Group_13" data-name="Group 13" transform="translate(14.468 17.446)">
      <path id="Path_57" data-name="Path 57" d="M529.942,263.111c-1.118-.665-1.177-2.628-.132-4.385a5.115,5.115,0,0,1,1.667-1.749l.614-1,7.764-13.919s3.4-13.127,4.782-14.714a3.833,3.833,0,0,1,3.384-1.213L549.8,227.7,543.463,246.3,535.647,257.3l-1.047,1.532a5.114,5.114,0,0,1-.742,2.3c-1.045,1.757-2.8,2.641-3.916,1.976Z" transform="translate(-529.064 -220.88)" fill="#ffb6b6"/>
      <path id="Path_58" data-name="Path 58" d="M560.314,212.534a5.338,5.338,0,0,1,4.028,1.823c1.558,1.918-6.6,23.539-6.6,23.539l-6.649-.235,9.225-25.127Z" transform="translate(-542.624 -212.533)" fill="#6c63ff"/>
    </g>
    <circle id="Ellipse_56" data-name="Ellipse 56" cx="6.069" cy="6.069" r="6.069" transform="translate(26.735 2.661)" fill="#ffb6b6"/>
    <path id="Path_59" data-name="Path 59" d="M528.025,417.378l-4.118,10.187-2.384-2.384-.867-4.552,3.468-4.335Z" transform="translate(-509.419 -320.539)" fill="#ffb6b6"/>
    <path id="Path_60" data-name="Path 60" d="M633.276,409.526l4.118,4.768-1.951,3.9-4.335-.65-2.168-6.069Z" transform="translate(-576.088 -316.372)" fill="#ffb6b6"/>
    <path id="Path_61" data-name="Path 61" d="M568.008,261.48l-.542,8.778,13.439-2.384-.867-5.419Z" transform="translate(-538.239 -225.223)" fill="#ffb6b6"/>
    <path id="Path_62" data-name="Path 62" d="M542.01,277.485l13.547-4.443s4.985,9.971-.434,16.256-23.409,42.05-23.409,42.05l-5.419-2.6,7.8-22.759,8.67-21.025-.759-7.478Z" transform="translate(-512.891 -232.342)" fill="#2f2e41"/>
    <path id="Path_63" data-name="Path 63" d="M585.68,305.753l5.2,22.759,10.838,17.557-5.635,3.251-15.173-20.808-4.985-16.04Z" transform="translate(-543.448 -252.481)" fill="#2f2e41"/>
    <path id="Path_64" data-name="Path 64" d="M500.7,424.083H496.95s-4.38-1.734-5.407,0,4.58,6.652,4.58,6.652,7.832,4.4,8.915,4.186,1.517-2.818,1.517-2.818l1.3-3.035-1.951.65s-2.6-1.517-1.951-4.118l-3.251-1.517Z" transform="translate(-491.417 -324.86)" fill="#2f2e41"/>
    <path id="Path_65" data-name="Path 65" d="M631.01,420.153v-2.168l2.52,2.168s4.2,1.517.948,4.768-7.37,6.719-7.37,6.719-6.5,1.734-6.936-.217a4.271,4.271,0,0,1,0-2.74l2.384-1.161,2.168-5.635,3.468.433,2.818-2.167Z" transform="translate(-570.57 -321.581)" fill="#2f2e41"/>
    <path id="Path_66" data-name="Path 66" d="M567.5,177.062l-1.951-.217-3.576-3.576s-3.251,1.734-3.251.434c0-6.069,3.685-5.852,6.719-6.286s2.709-.542,3.685,1.084c.446.743,2.059,1.192,2.059,1.192s3.034-4.118,4.552.867-.433,20.375,1.084,21.675-6.23,2.6-5.391-2.494,2.356-12.9,1.489-14.63-1.084-1.3-1.084-1.3c1.074-.439,1.776,7.288-2.275,7.667l-.11-3.765s-.65-1.951-1.951-.65Z" transform="translate(-532.857 -167.14)" fill="#2f2e41"/>
    <path id="Path_67" data-name="Path 67" d="M566.417,208.247l6.5-2.6,8.67,26.01-17.839-.65-1.606-7.763s-1.568-4.04-.268-6.425,4.54-8.571,4.54-8.571Z" transform="translate(-534.48 -190.847)" fill="#6c63ff"/>
    <g id="Group_14" data-name="Group 14" transform="translate(37.897 15.829)">
      <path id="Path_68" data-name="Path 68" d="M606.7,260.762c-1.3.111-2.488-1.449-2.663-3.486a5.115,5.115,0,0,1,.335-2.393l-.086-1.173-1.806-15.835s-3.362-12.953-3.163-15.049a8.016,8.016,0,0,1,.513-2.653l2.361.246,5.693,18.8.067,13.5.042,1.855a5.115,5.115,0,0,1,.738,2.3c.175,2.036-.734,3.778-2.03,3.889Z" transform="translate(-595.742 -215.621)" fill="#ffb6b6"/>
      <path id="Path_69" data-name="Path 69" d="M590.026,209.355a5.337,5.337,0,0,1,4.335-.867c2.384.65,8.357,22.976,8.357,22.976l-5.539,3.685Z" transform="translate(-590.026 -208.326)" fill="#6c63ff"/>
    </g>
  </g>
  <path id="Path_70" data-name="Path 70" d="M249.941,295.254h-26a2.881,2.881,0,0,1-2.878-2.878v-2.6a2.881,2.881,0,0,1,2.878-2.878h26a2.881,2.881,0,0,1,2.878,2.878v2.6A2.881,2.881,0,0,1,249.941,295.254Z" transform="translate(-136.103 -176.637)" fill="#6c63ff"/>
  <path id="Path_71" data-name="Path 71" d="M509.941,74.125h-26a2.881,2.881,0,0,1-2.878-2.878v-2.6a2.881,2.881,0,0,1,2.878-2.878h26a2.881,2.881,0,0,1,2.878,2.878v2.6A2.881,2.881,0,0,1,509.941,74.125Z" transform="translate(-296.18 -40.493)" fill="#6c63ff"/>
  <path id="Path_72" data-name="Path 72" d="M350,295.138H324a3.074,3.074,0,0,1-3.07-3.07v-2.6A3.073,3.073,0,0,1,324,286.4h26a3.073,3.073,0,0,1,3.07,3.07v2.6A3.074,3.074,0,0,1,350,295.138Zm-26-7.972a2.3,2.3,0,0,0-2.3,2.3v2.6a2.3,2.3,0,0,0,2.3,2.3h26a2.3,2.3,0,0,0,2.3-2.3v-2.6a2.3,2.3,0,0,0-2.3-2.3Z" transform="translate(-197.59 -176.329)" fill="#6c63ff"/>
  <path id="Path_73" data-name="Path 73" d="M256.685,172.752H119.867a2.306,2.306,0,1,1,0-4.612H256.685a2.306,2.306,0,1,1,0,4.612Z" transform="translate(-72.38 -103.52)" fill="#e6e6e6"/>
  <path id="Path_74" data-name="Path 74" d="M69.49,75.252H52.2a2.306,2.306,0,0,1,0-4.612H69.49a2.306,2.306,0,0,1,0,4.612Z" transform="translate(-30.716 -43.492)" fill="#e6e6e6"/>
  <path id="Path_75" data-name="Path 75" d="M338.49,75.252H321.2a2.306,2.306,0,0,1,0-4.612H338.49a2.306,2.306,0,0,1,0,4.612Z" transform="translate(-196.334 -43.492)" fill="#e6e6e6"/>
  <path id="Path_76" data-name="Path 76" d="M423.49,75.252H406.2a2.306,2.306,0,0,1,0-4.612H423.49a2.306,2.306,0,0,1,0,4.612Z" transform="translate(-248.667 -43.492)" fill="#e6e6e6"/>
  <path id="Path_77" data-name="Path 77" d="M274.963,234.752h-76.1a2.306,2.306,0,1,1,0-4.612h76.1a2.306,2.306,0,0,1,0,4.612Z" transform="translate(-121.019 -141.693)" fill="#e6e6e6"/>
  <path id="Path_78" data-name="Path 78" d="M274.427,368.929H191.7a1.394,1.394,0,1,1,0-2.789h82.727a1.394,1.394,0,1,1,0,2.789Z" transform="translate(-117.167 -225.425)" fill="#e6e6e6"/>
  <path id="Path_79" data-name="Path 79" d="M276.431,16.929H193.7a1.394,1.394,0,0,1,0-2.789h82.727a1.394,1.394,0,1,1,0,2.789Z" transform="translate(-118.401 -8.706)" fill="#fff"/>
</svg>
